<svg width="720" height="180" viewBox="0 0 720 180" fill="none" xmlns="http://www.w3.org/2000/svg" role="img" aria-labelledby="title desc">
  <title id="title">smartdict logo</title>
  <desc id="desc">Lowercase smartdict wordmark with a compact geometric bracket icon.</desc>
  <rect width="720" height="180" rx="32" fill="#FCFAF4"/>
  <rect x="28" y="28" width="124" height="124" rx="30" fill="url(#paint0_linear)"/>
  <path d="M75.5 58H100.5C108.508 58 115 64.4919 115 72.5V75.5C115 83.5081 108.508 90 100.5 90H89.5C82.5964 90 77 95.5964 77 102.5V107.5C77 114.404 82.5964 120 89.5 120H115" stroke="#FCFAF4" stroke-width="10.5" stroke-linecap="round"/>
  <path d="M53 58H60C66.9036 58 72.5 63.5964 72.5 70.5V78.5C72.5 85.4036 66.9036 91 60 91H53" stroke="#FCFAF4" stroke-width="10.5" stroke-linecap="round"/>
  <circle cx="197" cy="90" r="7" fill="#0F766E"/>
  <text x="222" y="111" fill="#18130F" font-family="'IBM Plex Sans', 'Segoe UI', sans-serif" font-size="72" font-weight="700" letter-spacing="-2.5">smartdict</text>
  <defs>
    <linearGradient id="paint0_linear" x1="34" y1="34" x2="146" y2="146" gradientUnits="userSpaceOnUse">
      <stop stop-color="#10B3A4"/>
      <stop offset="1" stop-color="#0B5A54"/>
    </linearGradient>
  </defs>
</svg>
