<svg viewBox="0 0 1024 512" xmlns="http://www.w3.org/2000/svg" role="img" aria-labelledby="title desc">
  <title id="title">smartdict concept 2</title>
  <desc id="desc">Technical node graph with braces to suggest connected structured data.</desc>
  <g id="icon">
    <path d="M116 146C88 146 72 164 72 193V215C72 235 62 249 42 256C62 263 72 277 72 297V319C72 348 88 366 116 366H142V324H126C118 324 112 318 112 310V286C112 262 102 250 82 256C102 250 112 238 112 214V202C112 194 118 188 126 188H142V146H116Z" fill="#0F766E"/>
    <path d="M290 146H264V188H280C288 188 294 194 294 202V214C294 238 304 250 324 256C304 262 294 274 294 298V310C294 318 288 324 280 324H264V366H290C318 366 334 348 334 319V297C334 277 344 263 364 256C344 249 334 235 334 215V193C334 164 318 146 290 146Z" fill="#0F766E"/>
    <circle cx="154" cy="190" r="26" fill="#201814"/>
    <circle cx="252" cy="164" r="22" fill="#201814"/>
    <circle cx="254" cy="286" r="26" fill="#B0632C"/>
    <circle cx="154" cy="320" r="22" fill="#201814"/>
    <circle cx="206" cy="238" r="30" fill="#FCFAF4" stroke="#201814" stroke-width="16"/>
    <path d="M154 190L206 238L252 164M206 238L254 286L154 320" stroke="#201814" stroke-width="16" stroke-linecap="round" stroke-linejoin="round" fill="none"/>
  </g>
  <g id="wordmark">
    <text x="410" y="286" fill="#201814" font-family="'IBM Plex Mono', 'SFMono-Regular', Consolas, monospace" font-size="132" font-weight="700" letter-spacing="-4">smartdict</text>
    <text x="414" y="336" fill="#0F766E" font-family="'IBM Plex Mono', 'SFMono-Regular', Consolas, monospace" font-size="34" font-weight="600" letter-spacing="3">RESOLVE NESTED CONFIGS</text>
  </g>
</svg>
